<?xml version="1.0" encoding="utf-8"?>
<!-- Generator: Adobe Illustrator 19.2.1, SVG Export Plug-In . SVG Version: 6.00 Build 0)  -->
<svg version="1.1" id="Vrstva_1" xmlns="http://www.w3.org/2000/svg" xmlns:xlink="http://www.w3.org/1999/xlink" x="0px" y="0px"
	 viewBox="0 0 45.4 45.4" style="enable-background:new 0 0 45.4 45.4;" xml:space="preserve">
<style type="text/css">
	.st0{fill:#0080FF;}
	.st1{fill:#FFFFFF;}
</style>
<path class="st1" d="M22.7,45.4c12.5,0,22.7-10.2,22.7-22.7S35.2,0,22.7,0S0,10.2,0,22.7S10.2,45.4,22.7,45.4"/>
<path class="st0" d="M19.6,33.1V12.3c-5.3,1.4-8.4,5.2-8.4,10.3C11.2,27.7,14.4,31.7,19.6,33.1 M39.8,22.6c0,4.8-1.7,8.8-5.1,12
	c-3.2,3.1-7.7,4.8-12.1,4.8c-4.6,0-8.6-1.6-11.9-4.6c-3.6-3.2-5.3-7.4-5.3-12.1C5.4,17,8.1,11.9,13,8.6c3-2,6.4-2.8,10.9-2.8h0.9
	v27.4c5.5-1,9.1-5.3,9.1-10.7c0-3.9-2-7.2-5.3-9.1V6.9C36,10,39.8,15.5,39.8,22.6"/>
</svg>
